{
	"asset":{
		"generator":"Khronos glTF Blender I/O v4.4.56",
		"version":"2.0"
	},
	"extensionsUsed":[
		"KHR_materials_specular"
	],
	"scene":0,
	"scenes":[
		{
			"name":"Scene",
			"nodes":[
				0
			]
		}
	],
	"nodes":[
		{
			"mesh":0,
			"name":"bei",
			"rotation":[
				0.7071068286895752,
				0,
				0,
				0.7071068286895752
			]
		}
	],
	"materials":[
		{
			"doubleSided":true,
			"extensions":{
				"KHR_materials_specular":{
					"specularFactor":0.6600000262260437
				}
			},
			"name":"Color_B02",
			"pbrMetallicRoughness":{
				"baseColorFactor":[
					0.6000000238418579,
					0.6000000238418579,
					0.6000000238418579,
					1
				],
				"metallicFactor":0
			}
		},
		{
			"doubleSided":true,
			"extensions":{
				"KHR_materials_specular":{
					"specularFactor":0.6600000262260437
				}
			},
			"name":"_auto_",
			"pbrMetallicRoughness":{
				"metallicFactor":0
			}
		},
		{
			"doubleSided":true,
			"extensions":{
				"KHR_materials_specular":{
					"specularFactor":0.6600000262260437
				}
			},
			"name":"FrontColor.002",
			"pbrMetallicRoughness":{
				"metallicFactor":0
			}
		}
	],
	"meshes":[
		{
			"name":"bei",
			"primitives":[
				{
					"attributes":{
						"POSITION":0,
						"NORMAL":1,
						"TEXCOORD_0":2
					},
					"indices":3,
					"material":0
				},
				{
					"attributes":{
						"POSITION":4,
						"NORMAL":5,
						"TEXCOORD_0":6
					},
					"indices":7,
					"material":1
				},
				{
					"attributes":{
						"POSITION":8,
						"NORMAL":9,
						"TEXCOORD_0":10
					},
					"indices":11,
					"material":2
				}
			]
		}
	],
	"accessors":[
		{
			"bufferView":0,
			"componentType":5126,
			"count":26331,
			"max":[
				1240.3199462890625,
				622.7730102539062,
				2.7538700517094268e-21
			],
			"min":[
				-1020.739990234375,
				-1228.6199951171875,
				-75.78399658203125
			],
			"type":"VEC3"
		},
		{
			"bufferView":1,
			"componentType":5126,
			"count":26331,
			"type":"VEC3"
		},
		{
			"bufferView":2,
			"componentType":5126,
			"count":26331,
			"type":"VEC2"
		},
		{
			"bufferView":3,
			"componentType":5123,
			"count":41313,
			"type":"SCALAR"
		},
		{
			"bufferView":4,
			"componentType":5126,
			"count":42397,
			"max":[
				1239.3800048828125,
				622.7730102539062,
				-4.903570175170898
			],
			"min":[
				-1020.739990234375,
				-1200.43994140625,
				-184.73199462890625
			],
			"type":"VEC3"
		},
		{
			"bufferView":5,
			"componentType":5126,
			"count":42397,
			"type":"VEC3"
		},
		{
			"bufferView":6,
			"componentType":5126,
			"count":42397,
			"type":"VEC2"
		},
		{
			"bufferView":7,
			"componentType":5123,
			"count":67791,
			"type":"SCALAR"
		},
		{
			"bufferView":8,
			"componentType":5126,
			"count":694,
			"max":[
				1012.5599975585938,
				196.6490020751953,
				-16.6299991607666
			],
			"min":[
				-54.52470016479492,
				-141.11300659179688,
				-94.00460052490234
			],
			"type":"VEC3"
		},
		{
			"bufferView":9,
			"componentType":5126,
			"count":694,
			"type":"VEC3"
		},
		{
			"bufferView":10,
			"componentType":5126,
			"count":694,
			"type":"VEC2"
		},
		{
			"bufferView":11,
			"componentType":5123,
			"count":1479,
			"type":"SCALAR"
		}
	],
	"bufferViews":[
		{
			"buffer":0,
			"byteLength":315972,
			"byteOffset":0,
			"target":34962
		},
		{
			"buffer":0,
			"byteLength":315972,
			"byteOffset":315972,
			"target":34962
		},
		{
			"buffer":0,
			"byteLength":210648,
			"byteOffset":631944,
			"target":34962
		},
		{
			"buffer":0,
			"byteLength":82626,
			"byteOffset":842592,
			"target":34963
		},
		{
			"buffer":0,
			"byteLength":508764,
			"byteOffset":925220,
			"target":34962
		},
		{
			"buffer":0,
			"byteLength":508764,
			"byteOffset":1433984,
			"target":34962
		},
		{
			"buffer":0,
			"byteLength":339176,
			"byteOffset":1942748,
			"target":34962
		},
		{
			"buffer":0,
			"byteLength":135582,
			"byteOffset":2281924,
			"target":34963
		},
		{
			"buffer":0,
			"byteLength":8328,
			"byteOffset":2417508,
			"target":34962
		},
		{
			"buffer":0,
			"byteLength":8328,
			"byteOffset":2425836,
			"target":34962
		},
		{
			"buffer":0,
			"byteLength":5552,
			"byteOffset":2434164,
			"target":34962
		},
		{
			"buffer":0,
			"byteLength":2958,
			"byteOffset":2439716,
			"target":34963
		}
	],
	"buffers":[
		{
			"byteLength":2442676,
			"uri":"bei.bin"
		}
	]
}
