{
	"asset":{
		"generator":"Khronos glTF Blender I/O v4.4.56",
		"version":"2.0"
	},
	"extensionsUsed":[
		"KHR_materials_specular"
	],
	"scene":0,
	"scenes":[
		{
			"name":"Scene",
			"nodes":[
				0
			]
		}
	],
	"nodes":[
		{
			"mesh":0,
			"name":"All_Tables",
			"rotation":[
				0.7071068286895752,
				0,
				0,
				0.7071068286895752
			],
			"scale":[
				0.09999997168779373,
				0.10000000149011612,
				0.10000000149011612
			],
			"translation":[
				-177.15830993652344,
				0,
				0
			]
		}
	],
	"materials":[
		{
			"doubleSided":true,
			"extensions":{
				"KHR_materials_specular":{
					"specularFactor":0.6600000262260437
				}
			},
			"name":"FrontColor",
			"pbrMetallicRoughness":{
				"metallicFactor":0
			}
		},
		{
			"doubleSided":true,
			"extensions":{
				"KHR_materials_specular":{
					"specularFactor":0.6600000262260437
				}
			},
			"name":"Color_003",
			"pbrMetallicRoughness":{
				"baseColorFactor":[
					0.6666669845581055,
					0.6666669845581055,
					0.6666669845581055,
					1
				],
				"metallicFactor":0
			}
		},
		{
			"doubleSided":true,
			"extensions":{
				"KHR_materials_specular":{
					"specularFactor":0.6600000262260437
				}
			},
			"name":"Color_002",
			"pbrMetallicRoughness":{
				"baseColorFactor":[
					0.7764710187911987,
					0.7764710187911987,
					0.7764710187911987,
					1
				],
				"metallicFactor":0
			}
		},
		{
			"doubleSided":true,
			"extensions":{
				"KHR_materials_specular":{
					"specularFactor":0.6600000262260437
				}
			},
			"name":"Color_006",
			"pbrMetallicRoughness":{
				"baseColorFactor":[
					0.33725500106811523,
					0.33725500106811523,
					0.33725500106811523,
					1
				],
				"metallicFactor":0
			}
		},
		{
			"doubleSided":true,
			"extensions":{
				"KHR_materials_specular":{
					"specularFactor":0.6600000262260437
				}
			},
			"name":"Color_007",
			"pbrMetallicRoughness":{
				"baseColorFactor":[
					0.22745099663734436,
					0.22745099663734436,
					0.22745099663734436,
					1
				],
				"metallicFactor":0
			}
		}
	],
	"meshes":[
		{
			"name":"All_Tables",
			"primitives":[
				{
					"attributes":{
						"POSITION":0,
						"NORMAL":1,
						"TEXCOORD_0":2
					},
					"indices":3,
					"material":0
				},
				{
					"attributes":{
						"POSITION":4,
						"NORMAL":5,
						"TEXCOORD_0":6
					},
					"indices":7,
					"material":1
				},
				{
					"attributes":{
						"POSITION":8,
						"NORMAL":9,
						"TEXCOORD_0":10
					},
					"indices":11,
					"material":2
				},
				{
					"attributes":{
						"POSITION":12,
						"NORMAL":13,
						"TEXCOORD_0":14
					},
					"indices":15,
					"material":3
				},
				{
					"attributes":{
						"POSITION":16,
						"NORMAL":17,
						"TEXCOORD_0":18
					},
					"indices":19,
					"material":4
				}
			]
		}
	],
	"accessors":[
		{
			"bufferView":0,
			"componentType":5126,
			"count":9550,
			"max":[
				3365.449951171875,
				386.01300048828125,
				46.02000045776367
			],
			"min":[
				574.6489868164062,
				-597.8989868164062,
				-177.60800170898438
			],
			"type":"VEC3"
		},
		{
			"bufferView":1,
			"componentType":5126,
			"count":9550,
			"type":"VEC3"
		},
		{
			"bufferView":2,
			"componentType":5126,
			"count":9550,
			"type":"VEC2"
		},
		{
			"bufferView":3,
			"componentType":5123,
			"count":14556,
			"type":"SCALAR"
		},
		{
			"bufferView":4,
			"componentType":5126,
			"count":196512,
			"max":[
				3363.550048828125,
				267.37701416015625,
				0.25
			],
			"min":[
				574.0490112304688,
				-598.4990234375,
				-175.70799255371094
			],
			"type":"VEC3"
		},
		{
			"bufferView":5,
			"componentType":5126,
			"count":196512,
			"type":"VEC3"
		},
		{
			"bufferView":6,
			"componentType":5126,
			"count":196512,
			"type":"VEC2"
		},
		{
			"bufferView":7,
			"componentType":5125,
			"count":416520,
			"type":"SCALAR"
		},
		{
			"bufferView":8,
			"componentType":5126,
			"count":378,
			"max":[
				3273.969970703125,
				434.03399658203125,
				0
			],
			"min":[
				1400.7900390625,
				-567.0130004882812,
				-151.26600646972656
			],
			"type":"VEC3"
		},
		{
			"bufferView":9,
			"componentType":5126,
			"count":378,
			"type":"VEC3"
		},
		{
			"bufferView":10,
			"componentType":5126,
			"count":378,
			"type":"VEC2"
		},
		{
			"bufferView":11,
			"componentType":5123,
			"count":648,
			"type":"SCALAR"
		},
		{
			"bufferView":12,
			"componentType":5126,
			"count":284,
			"max":[
				2928.580078125,
				226.94700622558594,
				-132.08200073242188
			],
			"min":[
				1857.81005859375,
				-558.3629760742188,
				-132.7169952392578
			],
			"type":"VEC3"
		},
		{
			"bufferView":13,
			"componentType":5126,
			"count":284,
			"type":"VEC3"
		},
		{
			"bufferView":14,
			"componentType":5126,
			"count":284,
			"type":"VEC2"
		},
		{
			"bufferView":15,
			"componentType":5123,
			"count":552,
			"type":"SCALAR"
		},
		{
			"bufferView":16,
			"componentType":5126,
			"count":64,
			"max":[
				2924.909912109375,
				263.3630065917969,
				-109.75800323486328
			],
			"min":[
				2859.27001953125,
				190.5279998779297,
				-155.2740020751953
			],
			"type":"VEC3"
		},
		{
			"bufferView":17,
			"componentType":5126,
			"count":64,
			"type":"VEC3"
		},
		{
			"bufferView":18,
			"componentType":5126,
			"count":64,
			"type":"VEC2"
		},
		{
			"bufferView":19,
			"componentType":5123,
			"count":120,
			"type":"SCALAR"
		}
	],
	"bufferViews":[
		{
			"buffer":0,
			"byteLength":114600,
			"byteOffset":0,
			"target":34962
		},
		{
			"buffer":0,
			"byteLength":114600,
			"byteOffset":114600,
			"target":34962
		},
		{
			"buffer":0,
			"byteLength":76400,
			"byteOffset":229200,
			"target":34962
		},
		{
			"buffer":0,
			"byteLength":29112,
			"byteOffset":305600,
			"target":34963
		},
		{
			"buffer":0,
			"byteLength":2358144,
			"byteOffset":334712,
			"target":34962
		},
		{
			"buffer":0,
			"byteLength":2358144,
			"byteOffset":2692856,
			"target":34962
		},
		{
			"buffer":0,
			"byteLength":1572096,
			"byteOffset":5051000,
			"target":34962
		},
		{
			"buffer":0,
			"byteLength":1666080,
			"byteOffset":6623096,
			"target":34963
		},
		{
			"buffer":0,
			"byteLength":4536,
			"byteOffset":8289176,
			"target":34962
		},
		{
			"buffer":0,
			"byteLength":4536,
			"byteOffset":8293712,
			"target":34962
		},
		{
			"buffer":0,
			"byteLength":3024,
			"byteOffset":8298248,
			"target":34962
		},
		{
			"buffer":0,
			"byteLength":1296,
			"byteOffset":8301272,
			"target":34963
		},
		{
			"buffer":0,
			"byteLength":3408,
			"byteOffset":8302568,
			"target":34962
		},
		{
			"buffer":0,
			"byteLength":3408,
			"byteOffset":8305976,
			"target":34962
		},
		{
			"buffer":0,
			"byteLength":2272,
			"byteOffset":8309384,
			"target":34962
		},
		{
			"buffer":0,
			"byteLength":1104,
			"byteOffset":8311656,
			"target":34963
		},
		{
			"buffer":0,
			"byteLength":768,
			"byteOffset":8312760,
			"target":34962
		},
		{
			"buffer":0,
			"byteLength":768,
			"byteOffset":8313528,
			"target":34962
		},
		{
			"buffer":0,
			"byteLength":512,
			"byteOffset":8314296,
			"target":34962
		},
		{
			"buffer":0,
			"byteLength":240,
			"byteOffset":8314808,
			"target":34963
		}
	],
	"buffers":[
		{
			"byteLength":8315048,
			"uri":"mies.bin"
		}
	]
}
