{
	"asset":{
		"generator":"Khronos glTF Blender I/O v4.4.56",
		"version":"2.0"
	},
	"extensionsUsed":[
		"KHR_materials_specular"
	],
	"scene":0,
	"scenes":[
		{
			"name":"Scene",
			"nodes":[
				0,
				1,
				2,
				3,
				4,
				5,
				6,
				7,
				8,
				9,
				10,
				11,
				12,
				13,
				14
			]
		}
	],
	"nodes":[
		{
			"mesh":0,
			"name":"SketchUp",
			"rotation":[
				0,
				-0.21276912093162537,
				0,
				0.977102518081665
			],
			"scale":[
				0.02539999969303608,
				0.02539999969303608,
				0.02539999969303608
			],
			"translation":[
				8.00256061553955,
				-3.902238130569458,
				-1.0300323963165283
			]
		},
		{
			"mesh":1,
			"name":"SketchUp.001",
			"rotation":[
				0,
				-0.21276912093162537,
				0,
				0.977102518081665
			],
			"scale":[
				0.02539999969303608,
				0.02539999969303608,
				0.02539999969303608
			],
			"translation":[
				8.00256061553955,
				-3.902238130569458,
				-1.0300323963165283
			]
		},
		{
			"mesh":2,
			"name":"SketchUp.002",
			"rotation":[
				0,
				-0.21276912093162537,
				0,
				0.977102518081665
			],
			"scale":[
				0.02539999969303608,
				0.02539999969303608,
				0.02539999969303608
			],
			"translation":[
				8.00256061553955,
				-3.902238130569458,
				-1.0300323963165283
			]
		},
		{
			"mesh":3,
			"name":"SketchUp.003",
			"rotation":[
				0,
				-0.21276912093162537,
				0,
				0.977102518081665
			],
			"scale":[
				0.02539999969303608,
				0.02539999969303608,
				0.02539999969303608
			],
			"translation":[
				8.00256061553955,
				-3.902238130569458,
				-1.0300323963165283
			]
		},
		{
			"mesh":4,
			"name":"SketchUp.004",
			"rotation":[
				0,
				-0.21276912093162537,
				0,
				0.977102518081665
			],
			"scale":[
				0.02539999969303608,
				0.02539999969303608,
				0.02539999969303608
			],
			"translation":[
				8.00256061553955,
				-3.902238130569458,
				-1.0300323963165283
			]
		},
		{
			"mesh":5,
			"name":"SketchUp.005",
			"rotation":[
				0,
				-0.21276912093162537,
				0,
				0.977102518081665
			],
			"scale":[
				0.02539999969303608,
				0.02539999969303608,
				0.02539999969303608
			],
			"translation":[
				8.00256061553955,
				-3.902238130569458,
				-1.0300323963165283
			]
		},
		{
			"mesh":6,
			"name":"SketchUp.006",
			"rotation":[
				0,
				-0.21276912093162537,
				0,
				0.977102518081665
			],
			"scale":[
				0.02539999969303608,
				0.02539999969303608,
				0.02539999969303608
			],
			"translation":[
				8.00256061553955,
				-3.902238130569458,
				-1.0300323963165283
			]
		},
		{
			"mesh":7,
			"name":"SketchUp.007",
			"rotation":[
				0,
				-0.21276912093162537,
				0,
				0.977102518081665
			],
			"scale":[
				0.02539999969303608,
				0.02539999969303608,
				0.02539999969303608
			],
			"translation":[
				8.00256061553955,
				-3.902238130569458,
				-1.0300323963165283
			]
		},
		{
			"mesh":8,
			"name":"SketchUp.008",
			"rotation":[
				0,
				-0.21276912093162537,
				0,
				0.977102518081665
			],
			"scale":[
				0.02539999969303608,
				0.02539999969303608,
				0.02539999969303608
			],
			"translation":[
				8.00256061553955,
				-3.902238130569458,
				-1.0300323963165283
			]
		},
		{
			"mesh":9,
			"name":"SketchUp.009",
			"rotation":[
				0,
				-0.21276912093162537,
				0,
				0.977102518081665
			],
			"scale":[
				0.02539999969303608,
				0.02539999969303608,
				0.02539999969303608
			],
			"translation":[
				8.00256061553955,
				-3.902238130569458,
				-1.0300323963165283
			]
		},
		{
			"mesh":10,
			"name":"SketchUp.010",
			"rotation":[
				0,
				-0.21276912093162537,
				0,
				0.977102518081665
			],
			"scale":[
				0.02539999969303608,
				0.02539999969303608,
				0.02539999969303608
			],
			"translation":[
				8.00256061553955,
				-3.902238130569458,
				-1.0300323963165283
			]
		},
		{
			"mesh":11,
			"name":"SketchUp.011",
			"rotation":[
				0,
				-0.21276912093162537,
				0,
				0.977102518081665
			],
			"scale":[
				0.02539999969303608,
				0.02539999969303608,
				0.02539999969303608
			],
			"translation":[
				8.00256061553955,
				-3.902238130569458,
				-1.0300323963165283
			]
		},
		{
			"mesh":12,
			"name":"SketchUp.012",
			"rotation":[
				0,
				-0.21276912093162537,
				0,
				0.977102518081665
			],
			"scale":[
				0.02539999969303608,
				0.02539999969303608,
				0.02539999969303608
			],
			"translation":[
				8.00256061553955,
				-3.902238130569458,
				-1.0300323963165283
			]
		},
		{
			"mesh":13,
			"name":"SketchUp.013",
			"rotation":[
				0,
				-0.21276912093162537,
				0,
				0.977102518081665
			],
			"scale":[
				0.02539999969303608,
				0.02539999969303608,
				0.02539999969303608
			],
			"translation":[
				8.00256061553955,
				-3.902238130569458,
				-1.0300323963165283
			]
		},
		{
			"mesh":14,
			"name":"SketchUp.014",
			"rotation":[
				0,
				-0.21276912093162537,
				0,
				0.977102518081665
			],
			"scale":[
				0.02539999969303608,
				0.02539999969303608,
				0.02539999969303608
			],
			"translation":[
				8.00256061553955,
				-3.902238130569458,
				-1.0300323963165283
			]
		}
	],
	"materials":[
		{
			"doubleSided":true,
			"extensions":{
				"KHR_materials_specular":{
					"specularFactor":0
				}
			},
			"name":"Color_C01",
			"pbrMetallicRoughness":{
				"metallicFactor":0,
				"roughnessFactor":0.5
			}
		},
		{
			"doubleSided":true,
			"extensions":{
				"KHR_materials_specular":{
					"specularFactor":0
				}
			},
			"name":"WallPaint_FineGrain_01_White_1m_1",
			"pbrMetallicRoughness":{
				"baseColorFactor":[
					0.9372549057006836,
					0.9372549057006836,
					0.9294118285179138,
					1
				],
				"metallicFactor":0,
				"roughnessFactor":0.5
			}
		}
	],
	"meshes":[
		{
			"name":"ID3",
			"primitives":[
				{
					"attributes":{
						"POSITION":0,
						"NORMAL":1
					},
					"indices":2,
					"material":0
				}
			]
		},
		{
			"name":"ID11",
			"primitives":[
				{
					"attributes":{
						"POSITION":3,
						"NORMAL":4
					},
					"indices":5,
					"material":0
				}
			]
		},
		{
			"name":"ID17",
			"primitives":[
				{
					"attributes":{
						"POSITION":6,
						"NORMAL":7
					},
					"indices":8,
					"material":0
				}
			]
		},
		{
			"name":"ID23",
			"primitives":[
				{
					"attributes":{
						"POSITION":9,
						"NORMAL":10
					},
					"indices":11,
					"material":1
				}
			]
		},
		{
			"name":"ID31",
			"primitives":[
				{
					"attributes":{
						"POSITION":12,
						"NORMAL":13
					},
					"indices":14,
					"material":0
				}
			]
		},
		{
			"name":"ID37",
			"primitives":[
				{
					"attributes":{
						"POSITION":15,
						"NORMAL":16
					},
					"indices":14,
					"material":0
				}
			]
		},
		{
			"name":"ID43",
			"primitives":[
				{
					"attributes":{
						"POSITION":17,
						"NORMAL":18
					},
					"indices":14,
					"material":0
				}
			]
		},
		{
			"name":"ID49",
			"primitives":[
				{
					"attributes":{
						"POSITION":19,
						"NORMAL":20
					},
					"indices":21,
					"material":1
				}
			]
		},
		{
			"name":"ID55",
			"primitives":[
				{
					"attributes":{
						"POSITION":22,
						"NORMAL":23
					},
					"indices":24,
					"material":0
				}
			]
		},
		{
			"name":"ID61",
			"primitives":[
				{
					"attributes":{
						"POSITION":25,
						"NORMAL":26
					},
					"indices":24,
					"material":0
				}
			]
		},
		{
			"name":"ID67",
			"primitives":[
				{
					"attributes":{
						"POSITION":27,
						"NORMAL":28
					},
					"indices":14,
					"material":0
				}
			]
		},
		{
			"name":"ID73",
			"primitives":[
				{
					"attributes":{
						"POSITION":29,
						"NORMAL":30
					},
					"indices":31,
					"material":0
				}
			]
		},
		{
			"name":"ID79",
			"primitives":[
				{
					"attributes":{
						"POSITION":32,
						"NORMAL":33
					},
					"indices":14,
					"material":0
				}
			]
		},
		{
			"name":"ID85",
			"primitives":[
				{
					"attributes":{
						"POSITION":34,
						"NORMAL":35
					},
					"indices":14,
					"material":0
				}
			]
		},
		{
			"name":"ID91",
			"primitives":[
				{
					"attributes":{
						"POSITION":36,
						"NORMAL":37
					},
					"indices":38,
					"material":1
				}
			]
		}
	],
	"accessors":[
		{
			"bufferView":0,
			"componentType":5126,
			"count":12058,
			"max":[
				-311.1231689453125,
				279.6697998046875,
				302.5559387207031
			],
			"min":[
				-503.5204162597656,
				146.99264526367188,
				160.6604461669922
			],
			"type":"VEC3"
		},
		{
			"bufferView":1,
			"componentType":5126,
			"count":12058,
			"type":"VEC3"
		},
		{
			"bufferView":2,
			"componentType":5123,
			"count":20790,
			"type":"SCALAR"
		},
		{
			"bufferView":3,
			"componentType":5126,
			"count":19147,
			"max":[
				-18.955629348754883,
				279.6697998046875,
				261.0090637207031
			],
			"min":[
				-347.42767333984375,
				153.685546875,
				28.177629470825195
			],
			"type":"VEC3"
		},
		{
			"bufferView":4,
			"componentType":5126,
			"count":19147,
			"type":"VEC3"
		},
		{
			"bufferView":5,
			"componentType":5123,
			"count":35490,
			"type":"SCALAR"
		},
		{
			"bufferView":6,
			"componentType":5126,
			"count":1377,
			"max":[
				-89.18152618408203,
				274.4485778808594,
				336.31072998046875
			],
			"min":[
				-179.04457092285156,
				153.685546875,
				282.06793212890625
			],
			"type":"VEC3"
		},
		{
			"bufferView":7,
			"componentType":5126,
			"count":1377,
			"type":"VEC3"
		},
		{
			"bufferView":8,
			"componentType":5123,
			"count":2352,
			"type":"SCALAR"
		},
		{
			"bufferView":9,
			"componentType":5126,
			"count":326,
			"max":[
				-93.91686248779297,
				272.33172607421875,
				171.61058044433594
			],
			"min":[
				-111.13899993896484,
				155.654052734375,
				135.37718200683594
			],
			"type":"VEC3"
		},
		{
			"bufferView":10,
			"componentType":5126,
			"count":326,
			"type":"VEC3"
		},
		{
			"bufferView":11,
			"componentType":5123,
			"count":564,
			"type":"SCALAR"
		},
		{
			"bufferView":12,
			"componentType":5126,
			"count":100,
			"max":[
				-6.331934928894043,
				269.8272705078125,
				281.6692199707031
			],
			"min":[
				-58.73656463623047,
				267.8587646484375,
				247.29014587402344
			],
			"type":"VEC3"
		},
		{
			"bufferView":13,
			"componentType":5126,
			"count":100,
			"type":"VEC3"
		},
		{
			"bufferView":14,
			"componentType":5123,
			"count":156,
			"type":"SCALAR"
		},
		{
			"bufferView":15,
			"componentType":5126,
			"count":100,
			"max":[
				-6.331934928894043,
				198.9611358642578,
				281.6692199707031
			],
			"min":[
				-58.73656463623047,
				196.99264526367188,
				247.29014587402344
			],
			"type":"VEC3"
		},
		{
			"bufferView":16,
			"componentType":5126,
			"count":100,
			"type":"VEC3"
		},
		{
			"bufferView":17,
			"componentType":5126,
			"count":100,
			"max":[
				-6.331934928894043,
				185.18161010742188,
				281.6692199707031
			],
			"min":[
				-58.73656463623047,
				183.21310424804688,
				247.29014587402344
			],
			"type":"VEC3"
		},
		{
			"bufferView":18,
			"componentType":5126,
			"count":100,
			"type":"VEC3"
		},
		{
			"bufferView":19,
			"componentType":5126,
			"count":2484,
			"max":[
				-18.139305114746094,
				272.33172607421875,
				318.7209167480469
			],
			"min":[
				-178.06964111328125,
				153.1496124267578,
				181.9499969482422
			],
			"type":"VEC3"
		},
		{
			"bufferView":20,
			"componentType":5126,
			"count":2484,
			"type":"VEC3"
		},
		{
			"bufferView":21,
			"componentType":5123,
			"count":4104,
			"type":"SCALAR"
		},
		{
			"bufferView":22,
			"componentType":5126,
			"count":100,
			"max":[
				-6.331934928894043,
				240.2997283935547,
				281.6692199707031
			],
			"min":[
				-58.73656463623047,
				238.3312225341797,
				247.29014587402344
			],
			"type":"VEC3"
		},
		{
			"bufferView":23,
			"componentType":5126,
			"count":100,
			"type":"VEC3"
		},
		{
			"bufferView":24,
			"componentType":5123,
			"count":156,
			"type":"SCALAR"
		},
		{
			"bufferView":25,
			"componentType":5126,
			"count":100,
			"max":[
				-6.331934928894043,
				256.0477600097656,
				281.6692199707031
			],
			"min":[
				-58.73656463623047,
				254.07925415039062,
				247.29014587402344
			],
			"type":"VEC3"
		},
		{
			"bufferView":26,
			"componentType":5126,
			"count":100,
			"type":"VEC3"
		},
		{
			"bufferView":27,
			"componentType":5126,
			"count":100,
			"max":[
				-6.331934928894043,
				226.5201873779297,
				281.6692199707031
			],
			"min":[
				-58.73656463623047,
				224.5516815185547,
				247.29014587402344
			],
			"type":"VEC3"
		},
		{
			"bufferView":28,
			"componentType":5126,
			"count":100,
			"type":"VEC3"
		},
		{
			"bufferView":29,
			"componentType":5126,
			"count":101,
			"max":[
				-6.331934928894043,
				157.62255859375,
				281.6692199707031
			],
			"min":[
				-58.73656463623047,
				155.654052734375,
				247.29014587402344
			],
			"type":"VEC3"
		},
		{
			"bufferView":30,
			"componentType":5126,
			"count":101,
			"type":"VEC3"
		},
		{
			"bufferView":31,
			"componentType":5123,
			"count":156,
			"type":"SCALAR"
		},
		{
			"bufferView":32,
			"componentType":5126,
			"count":100,
			"max":[
				-6.331934928894043,
				171.40208435058594,
				281.6692199707031
			],
			"min":[
				-58.73656463623047,
				169.43357849121094,
				247.29014587402344
			],
			"type":"VEC3"
		},
		{
			"bufferView":33,
			"componentType":5126,
			"count":100,
			"type":"VEC3"
		},
		{
			"bufferView":34,
			"componentType":5126,
			"count":100,
			"max":[
				-6.331934928894043,
				212.7406768798828,
				281.6692199707031
			],
			"min":[
				-58.73656463623047,
				210.77215576171875,
				247.29014587402344
			],
			"type":"VEC3"
		},
		{
			"bufferView":35,
			"componentType":5126,
			"count":100,
			"type":"VEC3"
		},
		{
			"bufferView":36,
			"componentType":5126,
			"count":8,
			"max":[
				-65.34547424316406,
				256.0477600097656,
				233.8966064453125
			],
			"min":[
				-66.16179656982422,
				254.07925415039062,
				232.1053466796875
			],
			"type":"VEC3"
		},
		{
			"bufferView":37,
			"componentType":5126,
			"count":8,
			"type":"VEC3"
		},
		{
			"bufferView":38,
			"componentType":5123,
			"count":12,
			"type":"SCALAR"
		}
	],
	"bufferViews":[
		{
			"buffer":0,
			"byteLength":144696,
			"byteOffset":0,
			"target":34962
		},
		{
			"buffer":0,
			"byteLength":144696,
			"byteOffset":144696,
			"target":34962
		},
		{
			"buffer":0,
			"byteLength":41580,
			"byteOffset":289392,
			"target":34963
		},
		{
			"buffer":0,
			"byteLength":229764,
			"byteOffset":330972,
			"target":34962
		},
		{
			"buffer":0,
			"byteLength":229764,
			"byteOffset":560736,
			"target":34962
		},
		{
			"buffer":0,
			"byteLength":70980,
			"byteOffset":790500,
			"target":34963
		},
		{
			"buffer":0,
			"byteLength":16524,
			"byteOffset":861480,
			"target":34962
		},
		{
			"buffer":0,
			"byteLength":16524,
			"byteOffset":878004,
			"target":34962
		},
		{
			"buffer":0,
			"byteLength":4704,
			"byteOffset":894528,
			"target":34963
		},
		{
			"buffer":0,
			"byteLength":3912,
			"byteOffset":899232,
			"target":34962
		},
		{
			"buffer":0,
			"byteLength":3912,
			"byteOffset":903144,
			"target":34962
		},
		{
			"buffer":0,
			"byteLength":1128,
			"byteOffset":907056,
			"target":34963
		},
		{
			"buffer":0,
			"byteLength":1200,
			"byteOffset":908184,
			"target":34962
		},
		{
			"buffer":0,
			"byteLength":1200,
			"byteOffset":909384,
			"target":34962
		},
		{
			"buffer":0,
			"byteLength":312,
			"byteOffset":910584,
			"target":34963
		},
		{
			"buffer":0,
			"byteLength":1200,
			"byteOffset":910896,
			"target":34962
		},
		{
			"buffer":0,
			"byteLength":1200,
			"byteOffset":912096,
			"target":34962
		},
		{
			"buffer":0,
			"byteLength":1200,
			"byteOffset":913296,
			"target":34962
		},
		{
			"buffer":0,
			"byteLength":1200,
			"byteOffset":914496,
			"target":34962
		},
		{
			"buffer":0,
			"byteLength":29808,
			"byteOffset":915696,
			"target":34962
		},
		{
			"buffer":0,
			"byteLength":29808,
			"byteOffset":945504,
			"target":34962
		},
		{
			"buffer":0,
			"byteLength":8208,
			"byteOffset":975312,
			"target":34963
		},
		{
			"buffer":0,
			"byteLength":1200,
			"byteOffset":983520,
			"target":34962
		},
		{
			"buffer":0,
			"byteLength":1200,
			"byteOffset":984720,
			"target":34962
		},
		{
			"buffer":0,
			"byteLength":312,
			"byteOffset":985920,
			"target":34963
		},
		{
			"buffer":0,
			"byteLength":1200,
			"byteOffset":986232,
			"target":34962
		},
		{
			"buffer":0,
			"byteLength":1200,
			"byteOffset":987432,
			"target":34962
		},
		{
			"buffer":0,
			"byteLength":1200,
			"byteOffset":988632,
			"target":34962
		},
		{
			"buffer":0,
			"byteLength":1200,
			"byteOffset":989832,
			"target":34962
		},
		{
			"buffer":0,
			"byteLength":1212,
			"byteOffset":991032,
			"target":34962
		},
		{
			"buffer":0,
			"byteLength":1212,
			"byteOffset":992244,
			"target":34962
		},
		{
			"buffer":0,
			"byteLength":312,
			"byteOffset":993456,
			"target":34963
		},
		{
			"buffer":0,
			"byteLength":1200,
			"byteOffset":993768,
			"target":34962
		},
		{
			"buffer":0,
			"byteLength":1200,
			"byteOffset":994968,
			"target":34962
		},
		{
			"buffer":0,
			"byteLength":1200,
			"byteOffset":996168,
			"target":34962
		},
		{
			"buffer":0,
			"byteLength":1200,
			"byteOffset":997368,
			"target":34962
		},
		{
			"buffer":0,
			"byteLength":96,
			"byteOffset":998568,
			"target":34962
		},
		{
			"buffer":0,
			"byteLength":96,
			"byteOffset":998664,
			"target":34962
		},
		{
			"buffer":0,
			"byteLength":24,
			"byteOffset":998760,
			"target":34963
		}
	],
	"buffers":[
		{
			"byteLength":998784,
			"uri":"ostap.bin"
		}
	]
}
