{
	"asset":{
		"generator":"Khronos glTF Blender I/O v4.4.56",
		"version":"2.0"
	},
	"extensionsUsed":[
		"KHR_materials_specular"
	],
	"scene":0,
	"scenes":[
		{
			"name":"Scene",
			"nodes":[
				0
			]
		}
	],
	"nodes":[
		{
			"mesh":0,
			"name":"show",
			"rotation":[
				0.7071068286895752,
				0,
				0,
				0.7071068286895752
			],
			"scale":[
				0.009999999776482582,
				0.009999999776482582,
				0.009999999776482582
			],
			"translation":[
				-54.2849235534668,
				0,
				-214.50833129882812
			]
		}
	],
	"materials":[
		{
			"doubleSided":true,
			"extensions":{
				"KHR_materials_specular":{
					"specularFactor":0.6600000262260437
				}
			},
			"name":"Concrete.002",
			"pbrMetallicRoughness":{
				"baseColorFactor":[
					0.9960780143737793,
					0.749019980430603,
					0.67843097448349,
					1
				],
				"metallicFactor":0
			}
		},
		{
			"doubleSided":true,
			"extensions":{
				"KHR_materials_specular":{
					"specularFactor":0.6600000262260437
				}
			},
			"name":"_.002",
			"pbrMetallicRoughness":{
				"metallicFactor":0
			}
		},
		{
			"doubleSided":true,
			"extensions":{
				"KHR_materials_specular":{
					"specularFactor":0.6600000262260437
				}
			},
			"name":"_3.002",
			"pbrMetallicRoughness":{
				"metallicFactor":0
			}
		},
		{
			"doubleSided":true,
			"extensions":{
				"KHR_materials_specular":{
					"specularFactor":0.6600000262260437
				}
			},
			"name":"_1.002",
			"pbrMetallicRoughness":{
				"metallicFactor":0
			}
		},
		{
			"doubleSided":true,
			"extensions":{
				"KHR_materials_specular":{
					"specularFactor":0.6600000262260437
				}
			},
			"name":"FrontColor.002",
			"pbrMetallicRoughness":{
				"metallicFactor":0
			}
		},
		{
			"alphaMode":"BLEND",
			"doubleSided":true,
			"extensions":{
				"KHR_materials_specular":{
					"specularFactor":0.6600000262260437
				}
			},
			"name":"_4.002",
			"pbrMetallicRoughness":{
				"baseColorFactor":[
					1,
					1,
					1,
					0.25999999046325684
				],
				"metallicFactor":0
			}
		},
		{
			"doubleSided":true,
			"extensions":{
				"KHR_materials_specular":{
					"specularFactor":0.6600000262260437
				}
			},
			"name":"Fritz_Hansen_Little_Giraffee284a2_3211_3211_2.002",
			"pbrMetallicRoughness":{
				"baseColorFactor":[
					0.8705880045890808,
					0.8666669726371765,
					0.8705880045890808,
					1
				],
				"metallicFactor":0
			}
		},
		{
			"doubleSided":true,
			"extensions":{
				"KHR_materials_specular":{
					"specularFactor":0.6600000262260437
				}
			},
			"name":"Fritz_Hansen_Little_Giraffee284a2_3211_3211_3.002",
			"pbrMetallicRoughness":{
				"baseColorFactor":[
					0.21568599343299866,
					0.21176500618457794,
					0.21568599343299866,
					1
				],
				"metallicFactor":0
			}
		},
		{
			"doubleSided":true,
			"extensions":{
				"KHR_materials_specular":{
					"specularFactor":0.6600000262260437
				}
			},
			"name":"Fritz_Hansen_Little_Giraffee284a2_3211_3211_1.002",
			"pbrMetallicRoughness":{
				"baseColorFactor":[
					0.7294120192527771,
					0.7294120192527771,
					0.7294120192527771,
					1
				],
				"metallicFactor":0
			}
		},
		{
			"doubleSided":true,
			"extensions":{
				"KHR_materials_specular":{
					"specularFactor":0.6600000262260437
				}
			},
			"name":"Color_A07.002",
			"pbrMetallicRoughness":{
				"baseColorFactor":[
					0.6000000238418579,
					0,
					0,
					1
				],
				"metallicFactor":0
			}
		},
		{
			"doubleSided":true,
			"extensions":{
				"KHR_materials_specular":{
					"specularFactor":0.6600000262260437
				}
			},
			"name":"_Color_M05_1.002",
			"pbrMetallicRoughness":{
				"baseColorFactor":[
					0.4470590054988861,
					0.4470590054988861,
					0.4470590054988861,
					1
				],
				"metallicFactor":0
			}
		}
	],
	"meshes":[
		{
			"name":"show.001",
			"primitives":[
				{
					"attributes":{
						"POSITION":0,
						"NORMAL":1,
						"TEXCOORD_0":2
					},
					"indices":3,
					"material":0
				},
				{
					"attributes":{
						"POSITION":4,
						"NORMAL":5,
						"TEXCOORD_0":6
					},
					"indices":7,
					"material":1
				},
				{
					"attributes":{
						"POSITION":8,
						"NORMAL":9,
						"TEXCOORD_0":10
					},
					"indices":11,
					"material":2
				},
				{
					"attributes":{
						"POSITION":12,
						"NORMAL":13,
						"TEXCOORD_0":14
					},
					"indices":15,
					"material":3
				},
				{
					"attributes":{
						"POSITION":16,
						"NORMAL":17,
						"TEXCOORD_0":18
					},
					"indices":19,
					"material":4
				},
				{
					"attributes":{
						"POSITION":20,
						"NORMAL":21,
						"TEXCOORD_0":22
					},
					"indices":23,
					"material":5
				},
				{
					"attributes":{
						"POSITION":24,
						"NORMAL":25,
						"TEXCOORD_0":26
					},
					"indices":27,
					"material":6
				},
				{
					"attributes":{
						"POSITION":28,
						"NORMAL":29,
						"TEXCOORD_0":30
					},
					"indices":31,
					"material":7
				},
				{
					"attributes":{
						"POSITION":32,
						"NORMAL":33,
						"TEXCOORD_0":34
					},
					"indices":35,
					"material":8
				},
				{
					"attributes":{
						"POSITION":36,
						"NORMAL":37,
						"TEXCOORD_0":38
					},
					"indices":39,
					"material":9
				},
				{
					"attributes":{
						"POSITION":40,
						"NORMAL":41,
						"TEXCOORD_0":42
					},
					"indices":43,
					"material":10
				}
			]
		}
	],
	"accessors":[
		{
			"bufferView":0,
			"componentType":5126,
			"count":234156,
			"max":[
				9186.6396484375,
				26662.099609375,
				-369.2950134277344
			],
			"min":[
				2342.85009765625,
				25981.099609375,
				-4631.97998046875
			],
			"type":"VEC3"
		},
		{
			"bufferView":1,
			"componentType":5126,
			"count":234156,
			"type":"VEC3"
		},
		{
			"bufferView":2,
			"componentType":5126,
			"count":234156,
			"type":"VEC2"
		},
		{
			"bufferView":3,
			"componentType":5125,
			"count":385092,
			"type":"SCALAR"
		},
		{
			"bufferView":4,
			"componentType":5126,
			"count":998,
			"max":[
				9393.259765625,
				24905.69921875,
				-150
			],
			"min":[
				7588.259765625,
				20745.69921875,
				-2710
			],
			"type":"VEC3"
		},
		{
			"bufferView":5,
			"componentType":5126,
			"count":998,
			"type":"VEC3"
		},
		{
			"bufferView":6,
			"componentType":5126,
			"count":998,
			"type":"VEC2"
		},
		{
			"bufferView":7,
			"componentType":5123,
			"count":1884,
			"type":"SCALAR"
		},
		{
			"bufferView":8,
			"componentType":5126,
			"count":1823,
			"max":[
				9623.259765625,
				26665.69921875,
				13.387200355529785
			],
			"min":[
				2023.260009765625,
				20655.69921875,
				-2920
			],
			"type":"VEC3"
		},
		{
			"bufferView":9,
			"componentType":5126,
			"count":1823,
			"type":"VEC3"
		},
		{
			"bufferView":10,
			"componentType":5126,
			"count":1823,
			"type":"VEC2"
		},
		{
			"bufferView":11,
			"componentType":5123,
			"count":3234,
			"type":"SCALAR"
		},
		{
			"bufferView":12,
			"componentType":5126,
			"count":254,
			"max":[
				9623.259765625,
				27300.69921875,
				0
			],
			"min":[
				5698.259765625,
				21085.69921875,
				-5480
			],
			"type":"VEC3"
		},
		{
			"bufferView":13,
			"componentType":5126,
			"count":254,
			"type":"VEC3"
		},
		{
			"bufferView":14,
			"componentType":5126,
			"count":254,
			"type":"VEC2"
		},
		{
			"bufferView":15,
			"componentType":5123,
			"count":534,
			"type":"SCALAR"
		},
		{
			"bufferView":16,
			"componentType":5126,
			"count":800,
			"max":[
				9753.259765625,
				27450.69921875,
				4.263260141505569e-14
			],
			"min":[
				1723.260009765625,
				22135.69921875,
				-5780
			],
			"type":"VEC3"
		},
		{
			"bufferView":17,
			"componentType":5126,
			"count":800,
			"type":"VEC3"
		},
		{
			"bufferView":18,
			"componentType":5126,
			"count":800,
			"type":"VEC2"
		},
		{
			"bufferView":19,
			"componentType":5123,
			"count":1584,
			"type":"SCALAR"
		},
		{
			"bufferView":20,
			"componentType":5126,
			"count":292,
			"max":[
				9383.259765625,
				26990.69921875,
				0
			],
			"min":[
				2243.260009765625,
				26980.69921875,
				-4870
			],
			"type":"VEC3"
		},
		{
			"bufferView":21,
			"componentType":5126,
			"count":292,
			"type":"VEC3"
		},
		{
			"bufferView":22,
			"componentType":5126,
			"count":292,
			"type":"VEC2"
		},
		{
			"bufferView":23,
			"componentType":5123,
			"count":438,
			"type":"SCALAR"
		},
		{
			"bufferView":24,
			"componentType":5126,
			"count":16865,
			"max":[
				8229.3798828125,
				23275.5,
				-247.10499572753906
			],
			"min":[
				7599.56005859375,
				22675,
				-636.3469848632812
			],
			"type":"VEC3"
		},
		{
			"bufferView":25,
			"componentType":5126,
			"count":16865,
			"type":"VEC3"
		},
		{
			"bufferView":26,
			"componentType":5126,
			"count":16865,
			"type":"VEC2"
		},
		{
			"bufferView":27,
			"componentType":5123,
			"count":18294,
			"type":"SCALAR"
		},
		{
			"bufferView":28,
			"componentType":5126,
			"count":7790,
			"max":[
				8234.0595703125,
				23278.099609375,
				-230
			],
			"min":[
				7601.3798828125,
				22670.30078125,
				-285.08599853515625
			],
			"type":"VEC3"
		},
		{
			"bufferView":29,
			"componentType":5126,
			"count":7790,
			"type":"VEC3"
		},
		{
			"bufferView":30,
			"componentType":5126,
			"count":7790,
			"type":"VEC2"
		},
		{
			"bufferView":31,
			"componentType":5123,
			"count":7980,
			"type":"SCALAR"
		},
		{
			"bufferView":32,
			"componentType":5126,
			"count":9330,
			"max":[
				8233.9599609375,
				23316.400390625,
				-623.1300048828125
			],
			"min":[
				7630.5,
				22689,
				-1177.1300048828125
			],
			"type":"VEC3"
		},
		{
			"bufferView":33,
			"componentType":5126,
			"count":9330,
			"type":"VEC3"
		},
		{
			"bufferView":34,
			"componentType":5126,
			"count":9330,
			"type":"VEC2"
		},
		{
			"bufferView":35,
			"componentType":5123,
			"count":9330,
			"type":"SCALAR"
		},
		{
			"bufferView":36,
			"componentType":5126,
			"count":4664,
			"max":[
				8413.259765625,
				27512.900390625,
				-230
			],
			"min":[
				1977.31005859375,
				10712.599609375,
				-5613.3798828125
			],
			"type":"VEC3"
		},
		{
			"bufferView":37,
			"componentType":5126,
			"count":4664,
			"type":"VEC3"
		},
		{
			"bufferView":38,
			"componentType":5126,
			"count":4664,
			"type":"VEC2"
		},
		{
			"bufferView":39,
			"componentType":5123,
			"count":9378,
			"type":"SCALAR"
		},
		{
			"bufferView":40,
			"componentType":5126,
			"count":4052,
			"max":[
				9608.259765625,
				27475.69921875,
				-4486.81982421875
			],
			"min":[
				6185.75,
				27450.69921875,
				-4819.1298828125
			],
			"type":"VEC3"
		},
		{
			"bufferView":41,
			"componentType":5126,
			"count":4052,
			"type":"VEC3"
		},
		{
			"bufferView":42,
			"componentType":5126,
			"count":4052,
			"type":"VEC2"
		},
		{
			"bufferView":43,
			"componentType":5123,
			"count":7956,
			"type":"SCALAR"
		}
	],
	"bufferViews":[
		{
			"buffer":0,
			"byteLength":2809872,
			"byteOffset":0,
			"target":34962
		},
		{
			"buffer":0,
			"byteLength":2809872,
			"byteOffset":2809872,
			"target":34962
		},
		{
			"buffer":0,
			"byteLength":1873248,
			"byteOffset":5619744,
			"target":34962
		},
		{
			"buffer":0,
			"byteLength":1540368,
			"byteOffset":7492992,
			"target":34963
		},
		{
			"buffer":0,
			"byteLength":11976,
			"byteOffset":9033360,
			"target":34962
		},
		{
			"buffer":0,
			"byteLength":11976,
			"byteOffset":9045336,
			"target":34962
		},
		{
			"buffer":0,
			"byteLength":7984,
			"byteOffset":9057312,
			"target":34962
		},
		{
			"buffer":0,
			"byteLength":3768,
			"byteOffset":9065296,
			"target":34963
		},
		{
			"buffer":0,
			"byteLength":21876,
			"byteOffset":9069064,
			"target":34962
		},
		{
			"buffer":0,
			"byteLength":21876,
			"byteOffset":9090940,
			"target":34962
		},
		{
			"buffer":0,
			"byteLength":14584,
			"byteOffset":9112816,
			"target":34962
		},
		{
			"buffer":0,
			"byteLength":6468,
			"byteOffset":9127400,
			"target":34963
		},
		{
			"buffer":0,
			"byteLength":3048,
			"byteOffset":9133868,
			"target":34962
		},
		{
			"buffer":0,
			"byteLength":3048,
			"byteOffset":9136916,
			"target":34962
		},
		{
			"buffer":0,
			"byteLength":2032,
			"byteOffset":9139964,
			"target":34962
		},
		{
			"buffer":0,
			"byteLength":1068,
			"byteOffset":9141996,
			"target":34963
		},
		{
			"buffer":0,
			"byteLength":9600,
			"byteOffset":9143064,
			"target":34962
		},
		{
			"buffer":0,
			"byteLength":9600,
			"byteOffset":9152664,
			"target":34962
		},
		{
			"buffer":0,
			"byteLength":6400,
			"byteOffset":9162264,
			"target":34962
		},
		{
			"buffer":0,
			"byteLength":3168,
			"byteOffset":9168664,
			"target":34963
		},
		{
			"buffer":0,
			"byteLength":3504,
			"byteOffset":9171832,
			"target":34962
		},
		{
			"buffer":0,
			"byteLength":3504,
			"byteOffset":9175336,
			"target":34962
		},
		{
			"buffer":0,
			"byteLength":2336,
			"byteOffset":9178840,
			"target":34962
		},
		{
			"buffer":0,
			"byteLength":876,
			"byteOffset":9181176,
			"target":34963
		},
		{
			"buffer":0,
			"byteLength":202380,
			"byteOffset":9182052,
			"target":34962
		},
		{
			"buffer":0,
			"byteLength":202380,
			"byteOffset":9384432,
			"target":34962
		},
		{
			"buffer":0,
			"byteLength":134920,
			"byteOffset":9586812,
			"target":34962
		},
		{
			"buffer":0,
			"byteLength":36588,
			"byteOffset":9721732,
			"target":34963
		},
		{
			"buffer":0,
			"byteLength":93480,
			"byteOffset":9758320,
			"target":34962
		},
		{
			"buffer":0,
			"byteLength":93480,
			"byteOffset":9851800,
			"target":34962
		},
		{
			"buffer":0,
			"byteLength":62320,
			"byteOffset":9945280,
			"target":34962
		},
		{
			"buffer":0,
			"byteLength":15960,
			"byteOffset":10007600,
			"target":34963
		},
		{
			"buffer":0,
			"byteLength":111960,
			"byteOffset":10023560,
			"target":34962
		},
		{
			"buffer":0,
			"byteLength":111960,
			"byteOffset":10135520,
			"target":34962
		},
		{
			"buffer":0,
			"byteLength":74640,
			"byteOffset":10247480,
			"target":34962
		},
		{
			"buffer":0,
			"byteLength":18660,
			"byteOffset":10322120,
			"target":34963
		},
		{
			"buffer":0,
			"byteLength":55968,
			"byteOffset":10340780,
			"target":34962
		},
		{
			"buffer":0,
			"byteLength":55968,
			"byteOffset":10396748,
			"target":34962
		},
		{
			"buffer":0,
			"byteLength":37312,
			"byteOffset":10452716,
			"target":34962
		},
		{
			"buffer":0,
			"byteLength":18756,
			"byteOffset":10490028,
			"target":34963
		},
		{
			"buffer":0,
			"byteLength":48624,
			"byteOffset":10508784,
			"target":34962
		},
		{
			"buffer":0,
			"byteLength":48624,
			"byteOffset":10557408,
			"target":34962
		},
		{
			"buffer":0,
			"byteLength":32416,
			"byteOffset":10606032,
			"target":34962
		},
		{
			"buffer":0,
			"byteLength":15912,
			"byteOffset":10638448,
			"target":34963
		}
	],
	"buffers":[
		{
			"byteLength":10654360,
			"uri":"show.bin"
		}
	]
}
