{
	"asset":{
		"generator":"Khronos glTF Blender I/O v4.4.56",
		"version":"2.0"
	},
	"extensionsUsed":[
		"KHR_materials_specular"
	],
	"scene":0,
	"scenes":[
		{
			"name":"Scene",
			"nodes":[
				0
			]
		}
	],
	"nodes":[
		{
			"mesh":0,
			"name":"urb",
			"rotation":[
				0.7071068286895752,
				0,
				0,
				0.7071068286895752
			],
			"translation":[
				40.17129898071289,
				0,
				0
			]
		}
	],
	"materials":[
		{
			"doubleSided":true,
			"extensions":{
				"KHR_materials_specular":{
					"specularFactor":0.6600000262260437
				}
			},
			"name":"_Color_D01_6",
			"pbrMetallicRoughness":{
				"baseColorFactor":[
					1,
					0.749019980430603,
					0,
					1
				],
				"metallicFactor":0
			}
		},
		{
			"doubleSided":true,
			"extensions":{
				"KHR_materials_specular":{
					"specularFactor":0.6600000262260437
				}
			},
			"name":"Color_002",
			"pbrMetallicRoughness":{
				"baseColorFactor":[
					0.7764710187911987,
					0.7764710187911987,
					0.7764710187911987,
					1
				],
				"metallicFactor":0
			}
		},
		{
			"doubleSided":true,
			"extensions":{
				"KHR_materials_specular":{
					"specularFactor":0.6600000262260437
				}
			},
			"name":"Color_I02",
			"pbrMetallicRoughness":{
				"metallicFactor":0
			}
		},
		{
			"alphaMode":"BLEND",
			"doubleSided":true,
			"extensions":{
				"KHR_materials_specular":{
					"specularFactor":0.6600000262260437
				}
			},
			"name":"_Color_001_2",
			"pbrMetallicRoughness":{
				"baseColorFactor":[
					0.807843029499054,
					0.807843029499054,
					0.807843029499054,
					0.3799999952316284
				],
				"metallicFactor":0
			}
		},
		{
			"doubleSided":true,
			"extensions":{
				"KHR_materials_specular":{
					"specularFactor":0.6600000262260437
				}
			},
			"name":"_Color_A07_4",
			"pbrMetallicRoughness":{
				"baseColorFactor":[
					0.282353013753891,
					0.521569013595581,
					0.8862749934196472,
					1
				],
				"metallicFactor":0
			}
		},
		{
			"doubleSided":true,
			"extensions":{
				"KHR_materials_specular":{
					"specularFactor":0.6600000262260437
				}
			},
			"name":"Color_H12",
			"pbrMetallicRoughness":{
				"baseColorFactor":[
					0.6117650270462036,
					0.7098039984703064,
					0.9294120073318481,
					1
				],
				"metallicFactor":0
			}
		},
		{
			"doubleSided":true,
			"extensions":{
				"KHR_materials_specular":{
					"specularFactor":0.6600000262260437
				}
			},
			"name":"FrontColor.003",
			"pbrMetallicRoughness":{
				"metallicFactor":0
			}
		},
		{
			"doubleSided":true,
			"extensions":{
				"KHR_materials_specular":{
					"specularFactor":0.6600000262260437
				}
			},
			"name":"black",
			"pbrMetallicRoughness":{
				"baseColorFactor":[
					0,
					0,
					0,
					1
				],
				"metallicFactor":0
			}
		},
		{
			"doubleSided":true,
			"extensions":{
				"KHR_materials_specular":{
					"specularFactor":0.6600000262260437
				}
			},
			"name":"_DimGray_",
			"pbrMetallicRoughness":{
				"baseColorFactor":[
					0.4117650091648102,
					0.4117650091648102,
					0.4117650091648102,
					1
				],
				"metallicFactor":0
			}
		},
		{
			"doubleSided":true,
			"extensions":{
				"KHR_materials_specular":{
					"specularFactor":0.6600000262260437
				}
			},
			"name":"_LightGray_",
			"pbrMetallicRoughness":{
				"baseColorFactor":[
					0.6627449989318848,
					0.6627449989318848,
					0.6627449989318848,
					1
				],
				"metallicFactor":0
			}
		},
		{
			"doubleSided":true,
			"extensions":{
				"KHR_materials_specular":{
					"specularFactor":0.6600000262260437
				}
			},
			"name":"_Charcoal_",
			"pbrMetallicRoughness":{
				"baseColorFactor":[
					0.137254998087883,
					0.137254998087883,
					0.137254998087883,
					1
				],
				"metallicFactor":0
			}
		},
		{
			"doubleSided":true,
			"extensions":{
				"KHR_materials_specular":{
					"specularFactor":0.6600000262260437
				}
			},
			"name":"_Beige_2",
			"pbrMetallicRoughness":{
				"baseColorFactor":[
					0.6666669845581055,
					0.5960779786109924,
					0.4549019932746887,
					1
				],
				"metallicFactor":0
			}
		}
	],
	"meshes":[
		{
			"name":"urb",
			"primitives":[
				{
					"attributes":{
						"POSITION":0,
						"NORMAL":1,
						"TEXCOORD_0":2
					},
					"indices":3,
					"material":0
				},
				{
					"attributes":{
						"POSITION":4,
						"NORMAL":5,
						"TEXCOORD_0":6
					},
					"indices":7,
					"material":1
				},
				{
					"attributes":{
						"POSITION":8,
						"NORMAL":9,
						"TEXCOORD_0":10
					},
					"indices":11,
					"material":2
				},
				{
					"attributes":{
						"POSITION":12,
						"NORMAL":13,
						"TEXCOORD_0":14
					},
					"indices":15,
					"material":3
				},
				{
					"attributes":{
						"POSITION":16,
						"NORMAL":17,
						"TEXCOORD_0":18
					},
					"indices":19,
					"material":4
				},
				{
					"attributes":{
						"POSITION":20,
						"NORMAL":21,
						"TEXCOORD_0":22
					},
					"indices":23,
					"material":5
				},
				{
					"attributes":{
						"POSITION":24,
						"NORMAL":25,
						"TEXCOORD_0":26
					},
					"indices":27,
					"material":6
				},
				{
					"attributes":{
						"POSITION":28,
						"NORMAL":29,
						"TEXCOORD_0":30
					},
					"indices":31,
					"material":7
				},
				{
					"attributes":{
						"POSITION":32,
						"NORMAL":33,
						"TEXCOORD_0":34
					},
					"indices":35,
					"material":8
				},
				{
					"attributes":{
						"POSITION":36,
						"NORMAL":37,
						"TEXCOORD_0":38
					},
					"indices":39,
					"material":9
				},
				{
					"attributes":{
						"POSITION":40,
						"NORMAL":41,
						"TEXCOORD_0":42
					},
					"indices":43,
					"material":10
				},
				{
					"attributes":{
						"POSITION":44,
						"NORMAL":45,
						"TEXCOORD_0":46
					},
					"indices":47,
					"material":11
				}
			]
		}
	],
	"accessors":[
		{
			"bufferView":0,
			"componentType":5126,
			"count":571,
			"max":[
				66.08329772949219,
				47.002498626708984,
				-3.3854401111602783
			],
			"min":[
				-125.47799682617188,
				-64.62349700927734,
				-32.52640151977539
			],
			"type":"VEC3"
		},
		{
			"bufferView":1,
			"componentType":5126,
			"count":571,
			"type":"VEC3"
		},
		{
			"bufferView":2,
			"componentType":5126,
			"count":571,
			"type":"VEC2"
		},
		{
			"bufferView":3,
			"componentType":5123,
			"count":1005,
			"type":"SCALAR"
		},
		{
			"bufferView":4,
			"componentType":5126,
			"count":1176,
			"max":[
				72.42880249023438,
				75.08380126953125,
				-0.7397540211677551
			],
			"min":[
				-154.25999450683594,
				-107.85099792480469,
				-10.347800254821777
			],
			"type":"VEC3"
		},
		{
			"bufferView":5,
			"componentType":5126,
			"count":1176,
			"type":"VEC3"
		},
		{
			"bufferView":6,
			"componentType":5126,
			"count":1176,
			"type":"VEC2"
		},
		{
			"bufferView":7,
			"componentType":5123,
			"count":2256,
			"type":"SCALAR"
		},
		{
			"bufferView":8,
			"componentType":5126,
			"count":5962,
			"max":[
				2.29436993598938,
				43.762298583984375,
				-11.832500457763672
			],
			"min":[
				-127.01100158691406,
				-25.304500579833984,
				-29.582500457763672
			],
			"type":"VEC3"
		},
		{
			"bufferView":9,
			"componentType":5126,
			"count":5962,
			"type":"VEC3"
		},
		{
			"bufferView":10,
			"componentType":5126,
			"count":5962,
			"type":"VEC2"
		},
		{
			"bufferView":11,
			"componentType":5123,
			"count":10134,
			"type":"SCALAR"
		},
		{
			"bufferView":12,
			"componentType":5126,
			"count":676,
			"max":[
				9.592940330505371,
				43.2422981262207,
				-4.165289878845215
			],
			"min":[
				-126.47200012207031,
				-37.76350021362305,
				-29.082500457763672
			],
			"type":"VEC3"
		},
		{
			"bufferView":13,
			"componentType":5126,
			"count":676,
			"type":"VEC3"
		},
		{
			"bufferView":14,
			"componentType":5126,
			"count":676,
			"type":"VEC2"
		},
		{
			"bufferView":15,
			"componentType":5123,
			"count":1014,
			"type":"SCALAR"
		},
		{
			"bufferView":16,
			"componentType":5126,
			"count":2642,
			"max":[
				13.548100471496582,
				42.02429962158203,
				-11.982500076293945
			],
			"min":[
				-121.62000274658203,
				-33.48460006713867,
				-26.282499313354492
			],
			"type":"VEC3"
		},
		{
			"bufferView":17,
			"componentType":5126,
			"count":2642,
			"type":"VEC3"
		},
		{
			"bufferView":18,
			"componentType":5126,
			"count":2642,
			"type":"VEC2"
		},
		{
			"bufferView":19,
			"componentType":5123,
			"count":3984,
			"type":"SCALAR"
		},
		{
			"bufferView":20,
			"componentType":5126,
			"count":5232,
			"max":[
				19.906299591064453,
				14.706500053405762,
				-11.032500267028809
			],
			"min":[
				-108.9990005493164,
				-41.040199279785156,
				-27.282499313354492
			],
			"type":"VEC3"
		},
		{
			"bufferView":21,
			"componentType":5126,
			"count":5232,
			"type":"VEC3"
		},
		{
			"bufferView":22,
			"componentType":5126,
			"count":5232,
			"type":"VEC2"
		},
		{
			"bufferView":23,
			"componentType":5123,
			"count":9156,
			"type":"SCALAR"
		},
		{
			"bufferView":24,
			"componentType":5126,
			"count":3877,
			"max":[
				10.895700454711914,
				11.760100364685059,
				-8.082509994506836
			],
			"min":[
				-63.858299255371094,
				-38.09510040283203,
				-26.082500457763672
			],
			"type":"VEC3"
		},
		{
			"bufferView":25,
			"componentType":5126,
			"count":3877,
			"type":"VEC3"
		},
		{
			"bufferView":26,
			"componentType":5126,
			"count":3877,
			"type":"VEC2"
		},
		{
			"bufferView":27,
			"componentType":5123,
			"count":6828,
			"type":"SCALAR"
		},
		{
			"bufferView":28,
			"componentType":5126,
			"count":8120,
			"max":[
				55.50090026855469,
				55.47060012817383,
				-3.6270298957824707
			],
			"min":[
				-140.47500610351562,
				-79.81939697265625,
				-27.84480094909668
			],
			"type":"VEC3"
		},
		{
			"bufferView":29,
			"componentType":5126,
			"count":8120,
			"type":"VEC3"
		},
		{
			"bufferView":30,
			"componentType":5126,
			"count":8120,
			"type":"VEC2"
		},
		{
			"bufferView":31,
			"componentType":5123,
			"count":25200,
			"type":"SCALAR"
		},
		{
			"bufferView":32,
			"componentType":5126,
			"count":800,
			"max":[
				55.485198974609375,
				55.436100006103516,
				-3.5943500995635986
			],
			"min":[
				-140.42100524902344,
				-79.6989974975586,
				-26.163700103759766
			],
			"type":"VEC3"
		},
		{
			"bufferView":33,
			"componentType":5126,
			"count":800,
			"type":"VEC3"
		},
		{
			"bufferView":34,
			"componentType":5126,
			"count":800,
			"type":"VEC2"
		},
		{
			"bufferView":35,
			"componentType":5123,
			"count":1920,
			"type":"SCALAR"
		},
		{
			"bufferView":36,
			"componentType":5126,
			"count":1960,
			"max":[
				55.50130081176758,
				55.47129821777344,
				-3.566380023956299
			],
			"min":[
				-140.4320068359375,
				-79.7240982055664,
				-26.187999725341797
			],
			"type":"VEC3"
		},
		{
			"bufferView":37,
			"componentType":5126,
			"count":1960,
			"type":"VEC3"
		},
		{
			"bufferView":38,
			"componentType":5126,
			"count":1960,
			"type":"VEC2"
		},
		{
			"bufferView":39,
			"componentType":5123,
			"count":5880,
			"type":"SCALAR"
		},
		{
			"bufferView":40,
			"componentType":5126,
			"count":1240,
			"max":[
				55.50130081176758,
				55.47129821777344,
				-3.5600900650024414
			],
			"min":[
				-140.4320068359375,
				-79.72329711914062,
				-26.152999877929688
			],
			"type":"VEC3"
		},
		{
			"bufferView":41,
			"componentType":5126,
			"count":1240,
			"type":"VEC3"
		},
		{
			"bufferView":42,
			"componentType":5126,
			"count":1240,
			"type":"VEC2"
		},
		{
			"bufferView":43,
			"componentType":5123,
			"count":3720,
			"type":"SCALAR"
		},
		{
			"bufferView":44,
			"componentType":5126,
			"count":7440,
			"max":[
				55.53239822387695,
				55.53969955444336,
				-4.310500144958496
			],
			"min":[
				-140.4739990234375,
				-79.8156967163086,
				-27.75670051574707
			],
			"type":"VEC3"
		},
		{
			"bufferView":45,
			"componentType":5126,
			"count":7440,
			"type":"VEC3"
		},
		{
			"bufferView":46,
			"componentType":5126,
			"count":7440,
			"type":"VEC2"
		},
		{
			"bufferView":47,
			"componentType":5123,
			"count":21600,
			"type":"SCALAR"
		}
	],
	"bufferViews":[
		{
			"buffer":0,
			"byteLength":6852,
			"byteOffset":0,
			"target":34962
		},
		{
			"buffer":0,
			"byteLength":6852,
			"byteOffset":6852,
			"target":34962
		},
		{
			"buffer":0,
			"byteLength":4568,
			"byteOffset":13704,
			"target":34962
		},
		{
			"buffer":0,
			"byteLength":2010,
			"byteOffset":18272,
			"target":34963
		},
		{
			"buffer":0,
			"byteLength":14112,
			"byteOffset":20284,
			"target":34962
		},
		{
			"buffer":0,
			"byteLength":14112,
			"byteOffset":34396,
			"target":34962
		},
		{
			"buffer":0,
			"byteLength":9408,
			"byteOffset":48508,
			"target":34962
		},
		{
			"buffer":0,
			"byteLength":4512,
			"byteOffset":57916,
			"target":34963
		},
		{
			"buffer":0,
			"byteLength":71544,
			"byteOffset":62428,
			"target":34962
		},
		{
			"buffer":0,
			"byteLength":71544,
			"byteOffset":133972,
			"target":34962
		},
		{
			"buffer":0,
			"byteLength":47696,
			"byteOffset":205516,
			"target":34962
		},
		{
			"buffer":0,
			"byteLength":20268,
			"byteOffset":253212,
			"target":34963
		},
		{
			"buffer":0,
			"byteLength":8112,
			"byteOffset":273480,
			"target":34962
		},
		{
			"buffer":0,
			"byteLength":8112,
			"byteOffset":281592,
			"target":34962
		},
		{
			"buffer":0,
			"byteLength":5408,
			"byteOffset":289704,
			"target":34962
		},
		{
			"buffer":0,
			"byteLength":2028,
			"byteOffset":295112,
			"target":34963
		},
		{
			"buffer":0,
			"byteLength":31704,
			"byteOffset":297140,
			"target":34962
		},
		{
			"buffer":0,
			"byteLength":31704,
			"byteOffset":328844,
			"target":34962
		},
		{
			"buffer":0,
			"byteLength":21136,
			"byteOffset":360548,
			"target":34962
		},
		{
			"buffer":0,
			"byteLength":7968,
			"byteOffset":381684,
			"target":34963
		},
		{
			"buffer":0,
			"byteLength":62784,
			"byteOffset":389652,
			"target":34962
		},
		{
			"buffer":0,
			"byteLength":62784,
			"byteOffset":452436,
			"target":34962
		},
		{
			"buffer":0,
			"byteLength":41856,
			"byteOffset":515220,
			"target":34962
		},
		{
			"buffer":0,
			"byteLength":18312,
			"byteOffset":557076,
			"target":34963
		},
		{
			"buffer":0,
			"byteLength":46524,
			"byteOffset":575388,
			"target":34962
		},
		{
			"buffer":0,
			"byteLength":46524,
			"byteOffset":621912,
			"target":34962
		},
		{
			"buffer":0,
			"byteLength":31016,
			"byteOffset":668436,
			"target":34962
		},
		{
			"buffer":0,
			"byteLength":13656,
			"byteOffset":699452,
			"target":34963
		},
		{
			"buffer":0,
			"byteLength":97440,
			"byteOffset":713108,
			"target":34962
		},
		{
			"buffer":0,
			"byteLength":97440,
			"byteOffset":810548,
			"target":34962
		},
		{
			"buffer":0,
			"byteLength":64960,
			"byteOffset":907988,
			"target":34962
		},
		{
			"buffer":0,
			"byteLength":50400,
			"byteOffset":972948,
			"target":34963
		},
		{
			"buffer":0,
			"byteLength":9600,
			"byteOffset":1023348,
			"target":34962
		},
		{
			"buffer":0,
			"byteLength":9600,
			"byteOffset":1032948,
			"target":34962
		},
		{
			"buffer":0,
			"byteLength":6400,
			"byteOffset":1042548,
			"target":34962
		},
		{
			"buffer":0,
			"byteLength":3840,
			"byteOffset":1048948,
			"target":34963
		},
		{
			"buffer":0,
			"byteLength":23520,
			"byteOffset":1052788,
			"target":34962
		},
		{
			"buffer":0,
			"byteLength":23520,
			"byteOffset":1076308,
			"target":34962
		},
		{
			"buffer":0,
			"byteLength":15680,
			"byteOffset":1099828,
			"target":34962
		},
		{
			"buffer":0,
			"byteLength":11760,
			"byteOffset":1115508,
			"target":34963
		},
		{
			"buffer":0,
			"byteLength":14880,
			"byteOffset":1127268,
			"target":34962
		},
		{
			"buffer":0,
			"byteLength":14880,
			"byteOffset":1142148,
			"target":34962
		},
		{
			"buffer":0,
			"byteLength":9920,
			"byteOffset":1157028,
			"target":34962
		},
		{
			"buffer":0,
			"byteLength":7440,
			"byteOffset":1166948,
			"target":34963
		},
		{
			"buffer":0,
			"byteLength":89280,
			"byteOffset":1174388,
			"target":34962
		},
		{
			"buffer":0,
			"byteLength":89280,
			"byteOffset":1263668,
			"target":34962
		},
		{
			"buffer":0,
			"byteLength":59520,
			"byteOffset":1352948,
			"target":34962
		},
		{
			"buffer":0,
			"byteLength":43200,
			"byteOffset":1412468,
			"target":34963
		}
	],
	"buffers":[
		{
			"byteLength":1455668,
			"uri":"urb.bin"
		}
	]
}
