{
  "asset": {
    "generator": "Khronos glTF Blender I/O v4.4.56",
    "version": "2.0"
  },
  "extensionsUsed": [
    "KHR_materials_specular"
  ],
  "scene": 0,
  "scenes": [
    {
      "name": "Scene",
      "nodes": [
        0
      ]
    }
  ],
  "nodes": [
    {
      "mesh": 0,
      "name": "vag",
      "rotation": [
        0.7071068286895752,
        0,
        0,
        0.7071068286895752
      ],
      "translation": [
        -123.43824768066406,
        0,
        0
      ]
    }
  ],
  "materials": [
    {
      "doubleSided": true,
      "extensions": {
        "KHR_materials_specular": {
          "specularFactor": 0.6600000262260437
        }
      },
      "name": "Color_M03",
      "pbrMetallicRoughness": {
        "baseColorFactor": [
          1.0,
          1.0,
          1.0,
          1.0
        ],
        "metallicFactor": 0
      }
    },
    {
      "doubleSided": true,
      "extensions": {
        "KHR_materials_specular": {
          "specularFactor": 0.6600000262260437
        }
      },
      "name": "FrontColor",
      "pbrMetallicRoughness": {
        "metallicFactor": 0,
        "baseColorFactor": [
          1.0,
          1.0,
          1.0,
          1.0
        ]
      }
    },
    {
      "doubleSided": true,
      "extensions": {
        "KHR_materials_specular": {
          "specularFactor": 0.6600000262260437
        }
      },
      "name": "Color_F06",
      "pbrMetallicRoughness": {
        "baseColorFactor": [
          1.0,
          1.0,
          1.0,
          1.0
        ],
        "metallicFactor": 0
      }
    },
    {
      "doubleSided": true,
      "extensions": {
        "KHR_materials_specular": {
          "specularFactor": 0.6600000262260437
        }
      },
      "name": "Color_F09",
      "pbrMetallicRoughness": {
        "baseColorFactor": [
          1.0,
          1.0,
          1.0,
          1.0
        ],
        "metallicFactor": 0
      }
    },
    {
      "doubleSided": true,
      "extensions": {
        "KHR_materials_specular": {
          "specularFactor": 0.6600000262260437
        }
      },
      "name": "_Brown_",
      "pbrMetallicRoughness": {
        "metallicFactor": 0,
        "baseColorFactor": [
          1.0,
          1.0,
          1.0,
          1.0
        ]
      }
    },
    {
      "doubleSided": true,
      "extensions": {
        "KHR_materials_specular": {
          "specularFactor": 0.6600000262260437
        }
      },
      "name": "Color_C05",
      "pbrMetallicRoughness": {
        "baseColorFactor": [
          1.0,
          1.0,
          1.0,
          1.0
        ],
        "metallicFactor": 0
      }
    },
    {
      "doubleSided": true,
      "extensions": {
        "KHR_materials_specular": {
          "specularFactor": 0.6600000262260437
        }
      },
      "name": "_Gray_Glass_",
      "pbrMetallicRoughness": {
        "metallicFactor": 0,
        "baseColorFactor": [
          1.0,
          1.0,
          1.0,
          1.0
        ]
      }
    },
    {
      "doubleSided": true,
      "extensions": {
        "KHR_materials_specular": {
          "specularFactor": 0.6600000262260437
        }
      },
      "name": "Brake_Light_Red",
      "pbrMetallicRoughness": {
        "baseColorFactor": [
          1.0,
          1.0,
          1.0,
          1.0
        ],
        "metallicFactor": 0
      }
    },
    {
      "doubleSided": true,
      "extensions": {
        "KHR_materials_specular": {
          "specularFactor": 0.6600000262260437
        }
      },
      "name": "Light_White_Smoke",
      "pbrMetallicRoughness": {
        "baseColorFactor": [
          1.0,
          1.0,
          1.0,
          1.0
        ],
        "metallicFactor": 0
      }
    },
    {
      "doubleSided": true,
      "extensions": {
        "KHR_materials_specular": {
          "specularFactor": 0.6600000262260437
        }
      },
      "name": "Color_M02",
      "pbrMetallicRoughness": {
        "baseColorFactor": [
          1.0,
          1.0,
          1.0,
          1.0
        ],
        "metallicFactor": 0
      }
    }
  ],
  "meshes": [
    {
      "name": "vag",
      "primitives": [
        {
          "attributes": {
            "POSITION": 0,
            "NORMAL": 1,
            "TEXCOORD_0": 2
          },
          "indices": 3,
          "material": 0
        },
        {
          "attributes": {
            "POSITION": 4,
            "NORMAL": 5,
            "TEXCOORD_0": 6
          },
          "indices": 7,
          "material": 1
        },
        {
          "attributes": {
            "POSITION": 8,
            "NORMAL": 9,
            "TEXCOORD_0": 10
          },
          "indices": 11,
          "material": 2
        },
        {
          "attributes": {
            "POSITION": 12,
            "NORMAL": 13,
            "TEXCOORD_0": 14
          },
          "indices": 15,
          "material": 3
        },
        {
          "attributes": {
            "POSITION": 16,
            "NORMAL": 17,
            "TEXCOORD_0": 18
          },
          "indices": 19,
          "material": 4
        },
        {
          "attributes": {
            "POSITION": 20,
            "NORMAL": 21,
            "TEXCOORD_0": 22
          },
          "indices": 23,
          "material": 5
        },
        {
          "attributes": {
            "POSITION": 24,
            "NORMAL": 25,
            "TEXCOORD_0": 26
          },
          "indices": 27,
          "material": 6
        },
        {
          "attributes": {
            "POSITION": 28,
            "NORMAL": 29,
            "TEXCOORD_0": 30
          },
          "indices": 31,
          "material": 7
        },
        {
          "attributes": {
            "POSITION": 32,
            "NORMAL": 33,
            "TEXCOORD_0": 34
          },
          "indices": 35,
          "material": 8
        },
        {
          "attributes": {
            "POSITION": 36,
            "NORMAL": 37,
            "TEXCOORD_0": 38
          },
          "indices": 39,
          "material": 9
        }
      ]
    }
  ],
  "accessors": [
    {
      "bufferView": 0,
      "componentType": 5126,
      "count": 168,
      "max": [
        290,
        -55.25,
        0
      ],
      "min": [
        2.8776999771822076e-13,
        -300,
        -0.6666669845581055
      ],
      "type": "VEC3"
    },
    {
      "bufferView": 1,
      "componentType": 5126,
      "count": 168,
      "type": "VEC3"
    },
    {
      "bufferView": 2,
      "componentType": 5126,
      "count": 168,
      "type": "VEC2"
    },
    {
      "bufferView": 3,
      "componentType": 5123,
      "count": 252,
      "type": "SCALAR"
    },
    {
      "bufferView": 4,
      "componentType": 5126,
      "count": 2850,
      "max": [
        290,
        200,
        1
      ],
      "min": [
        -4.855379878536403e-14,
        -300,
        -16.354799270629883
      ],
      "type": "VEC3"
    },
    {
      "bufferView": 5,
      "componentType": 5126,
      "count": 2850,
      "type": "VEC3"
    },
    {
      "bufferView": 6,
      "componentType": 5126,
      "count": 2850,
      "type": "VEC2"
    },
    {
      "bufferView": 7,
      "componentType": 5123,
      "count": 4584,
      "type": "SCALAR"
    },
    {
      "bufferView": 8,
      "componentType": 5126,
      "count": 240,
      "max": [
        290,
        -1.0989699818567122e-12,
        1.1102199806005023e-16
      ],
      "min": [
        0,
        -285,
        -0.6666669845581055
      ],
      "type": "VEC3"
    },
    {
      "bufferView": 9,
      "componentType": 5126,
      "count": 240,
      "type": "VEC3"
    },
    {
      "bufferView": 10,
      "componentType": 5126,
      "count": 240,
      "type": "VEC2"
    },
    {
      "bufferView": 11,
      "componentType": 5123,
      "count": 360,
      "type": "SCALAR"
    },
    {
      "bufferView": 12,
      "componentType": 5126,
      "count": 153504,
      "max": [
        170.69900512695312,
        -1.6019699573516846,
        -4.432660102844238
      ],
      "min": [
        10.608599662780762,
        -270.71600341796875,
        -41.72650146484375
      ],
      "type": "VEC3"
    },
    {
      "bufferView": 13,
      "componentType": 5126,
      "count": 153504,
      "type": "VEC3"
    },
    {
      "bufferView": 14,
      "componentType": 5126,
      "count": 153504,
      "type": "VEC2"
    },
    {
      "bufferView": 15,
      "componentType": 5125,
      "count": 153504,
      "type": "SCALAR"
    },
    {
      "bufferView": 16,
      "componentType": 5126,
      "count": 5904,
      "max": [
        160.71600341796875,
        -11.324700355529785,
        -0.6666669845581055
      ],
      "min": [
        16.92530059814453,
        -264.9200134277344,
        -18.104299545288086
      ],
      "type": "VEC3"
    },
    {
      "bufferView": 17,
      "componentType": 5126,
      "count": 5904,
      "type": "VEC3"
    },
    {
      "bufferView": 18,
      "componentType": 5126,
      "count": 5904,
      "type": "VEC2"
    },
    {
      "bufferView": 19,
      "componentType": 5123,
      "count": 11316,
      "type": "SCALAR"
    },
    {
      "bufferView": 20,
      "componentType": 5126,
      "count": 2108,
      "max": [
        290,
        -5.683999820295382e-13,
        3.3306698679688577e-16
      ],
      "min": [
        -4.265949917128888e-18,
        -282.6709899902344,
        -1.6666699647903442
      ],
      "type": "VEC3"
    },
    {
      "bufferView": 21,
      "componentType": 5126,
      "count": 2108,
      "type": "VEC3"
    },
    {
      "bufferView": 22,
      "componentType": 5126,
      "count": 2108,
      "type": "VEC2"
    },
    {
      "bufferView": 23,
      "componentType": 5123,
      "count": 4239,
      "type": "SCALAR"
    },
    {
      "bufferView": 24,
      "componentType": 5126,
      "count": 31648,
      "max": [
        280.6130065917969,
        -57.31529998779297,
        -0.6589969992637634
      ],
      "min": [
        12.203200340270996,
        -284.5150146484375,
        -5.374320030212402
      ],
      "type": "VEC3"
    },
    {
      "bufferView": 25,
      "componentType": 5126,
      "count": 31648,
      "type": "VEC3"
    },
    {
      "bufferView": 26,
      "componentType": 5126,
      "count": 31648,
      "type": "VEC2"
    },
    {
      "bufferView": 27,
      "componentType": 5123,
      "count": 61272,
      "type": "SCALAR"
    },
    {
      "bufferView": 28,
      "componentType": 5126,
      "count": 276,
      "max": [
        280.6130065917969,
        -57.31529998779297,
        -3.0443599224090576
      ],
      "min": [
        12.203200340270996,
        -282.6579895019531,
        -3.671760082244873
      ],
      "type": "VEC3"
    },
    {
      "bufferView": 29,
      "componentType": 5126,
      "count": 276,
      "type": "VEC3"
    },
    {
      "bufferView": 30,
      "componentType": 5126,
      "count": 276,
      "type": "VEC2"
    },
    {
      "bufferView": 31,
      "componentType": 5123,
      "count": 276,
      "type": "SCALAR"
    },
    {
      "bufferView": 32,
      "componentType": 5126,
      "count": 644,
      "max": [
        263.9219970703125,
        -57.4922981262207,
        -2.5112199783325195
      ],
      "min": [
        12.754300117492676,
        -284.5150146484375,
        -3.7273199558258057
      ],
      "type": "VEC3"
    },
    {
      "bufferView": 33,
      "componentType": 5126,
      "count": 644,
      "type": "VEC3"
    },
    {
      "bufferView": 34,
      "componentType": 5126,
      "count": 644,
      "type": "VEC2"
    },
    {
      "bufferView": 35,
      "componentType": 5123,
      "count": 828,
      "type": "SCALAR"
    },
    {
      "bufferView": 36,
      "componentType": 5126,
      "count": 24,
      "max": [
        290,
        -54.75,
        0
      ],
      "min": [
        260.99798583984375,
        -85,
        -0.6666669845581055
      ],
      "type": "VEC3"
    },
    {
      "bufferView": 37,
      "componentType": 5126,
      "count": 24,
      "type": "VEC3"
    },
    {
      "bufferView": 38,
      "componentType": 5126,
      "count": 24,
      "type": "VEC2"
    },
    {
      "bufferView": 39,
      "componentType": 5123,
      "count": 36,
      "type": "SCALAR"
    }
  ],
  "bufferViews": [
    {
      "buffer": 0,
      "byteLength": 2016,
      "byteOffset": 0,
      "target": 34962
    },
    {
      "buffer": 0,
      "byteLength": 2016,
      "byteOffset": 2016,
      "target": 34962
    },
    {
      "buffer": 0,
      "byteLength": 1344,
      "byteOffset": 4032,
      "target": 34962
    },
    {
      "buffer": 0,
      "byteLength": 504,
      "byteOffset": 5376,
      "target": 34963
    },
    {
      "buffer": 0,
      "byteLength": 34200,
      "byteOffset": 5880,
      "target": 34962
    },
    {
      "buffer": 0,
      "byteLength": 34200,
      "byteOffset": 40080,
      "target": 34962
    },
    {
      "buffer": 0,
      "byteLength": 22800,
      "byteOffset": 74280,
      "target": 34962
    },
    {
      "buffer": 0,
      "byteLength": 9168,
      "byteOffset": 97080,
      "target": 34963
    },
    {
      "buffer": 0,
      "byteLength": 2880,
      "byteOffset": 106248,
      "target": 34962
    },
    {
      "buffer": 0,
      "byteLength": 2880,
      "byteOffset": 109128,
      "target": 34962
    },
    {
      "buffer": 0,
      "byteLength": 1920,
      "byteOffset": 112008,
      "target": 34962
    },
    {
      "buffer": 0,
      "byteLength": 720,
      "byteOffset": 113928,
      "target": 34963
    },
    {
      "buffer": 0,
      "byteLength": 1842048,
      "byteOffset": 114648,
      "target": 34962
    },
    {
      "buffer": 0,
      "byteLength": 1842048,
      "byteOffset": 1956696,
      "target": 34962
    },
    {
      "buffer": 0,
      "byteLength": 1228032,
      "byteOffset": 3798744,
      "target": 34962
    },
    {
      "buffer": 0,
      "byteLength": 614016,
      "byteOffset": 5026776,
      "target": 34963
    },
    {
      "buffer": 0,
      "byteLength": 70848,
      "byteOffset": 5640792,
      "target": 34962
    },
    {
      "buffer": 0,
      "byteLength": 70848,
      "byteOffset": 5711640,
      "target": 34962
    },
    {
      "buffer": 0,
      "byteLength": 47232,
      "byteOffset": 5782488,
      "target": 34962
    },
    {
      "buffer": 0,
      "byteLength": 22632,
      "byteOffset": 5829720,
      "target": 34963
    },
    {
      "buffer": 0,
      "byteLength": 25296,
      "byteOffset": 5852352,
      "target": 34962
    },
    {
      "buffer": 0,
      "byteLength": 25296,
      "byteOffset": 5877648,
      "target": 34962
    },
    {
      "buffer": 0,
      "byteLength": 16864,
      "byteOffset": 5902944,
      "target": 34962
    },
    {
      "buffer": 0,
      "byteLength": 8478,
      "byteOffset": 5919808,
      "target": 34963
    },
    {
      "buffer": 0,
      "byteLength": 379776,
      "byteOffset": 5928288,
      "target": 34962
    },
    {
      "buffer": 0,
      "byteLength": 379776,
      "byteOffset": 6308064,
      "target": 34962
    },
    {
      "buffer": 0,
      "byteLength": 253184,
      "byteOffset": 6687840,
      "target": 34962
    },
    {
      "buffer": 0,
      "byteLength": 122544,
      "byteOffset": 6941024,
      "target": 34963
    },
    {
      "buffer": 0,
      "byteLength": 3312,
      "byteOffset": 7063568,
      "target": 34962
    },
    {
      "buffer": 0,
      "byteLength": 3312,
      "byteOffset": 7066880,
      "target": 34962
    },
    {
      "buffer": 0,
      "byteLength": 2208,
      "byteOffset": 7070192,
      "target": 34962
    },
    {
      "buffer": 0,
      "byteLength": 552,
      "byteOffset": 7072400,
      "target": 34963
    },
    {
      "buffer": 0,
      "byteLength": 7728,
      "byteOffset": 7072952,
      "target": 34962
    },
    {
      "buffer": 0,
      "byteLength": 7728,
      "byteOffset": 7080680,
      "target": 34962
    },
    {
      "buffer": 0,
      "byteLength": 5152,
      "byteOffset": 7088408,
      "target": 34962
    },
    {
      "buffer": 0,
      "byteLength": 1656,
      "byteOffset": 7093560,
      "target": 34963
    },
    {
      "buffer": 0,
      "byteLength": 288,
      "byteOffset": 7095216,
      "target": 34962
    },
    {
      "buffer": 0,
      "byteLength": 288,
      "byteOffset": 7095504,
      "target": 34962
    },
    {
      "buffer": 0,
      "byteLength": 192,
      "byteOffset": 7095792,
      "target": 34962
    },
    {
      "buffer": 0,
      "byteLength": 72,
      "byteOffset": 7095984,
      "target": 34963
    }
  ],
  "buffers": [
    {
      "byteLength": 7096056,
      "uri": "vag.bin"
    }
  ]
}